<?xml version="1.0" standalone="no"?>
<!DOCTYPE svg PUBLIC "-//W3C//DTD SVG 1.1//EN" "http://www.w3.org/Graphics/SVG/1.1/DTD/svg11.dtd" >
<svg xmlns="http://www.w3.org/2000/svg">
<metadata>Generated by IcoMoon</metadata>
<defs>
<font id="icomoon" horiz-adv-x="1024">
<font-face units-per-em="1024" ascent="960" descent="-64" />
<missing-glyph horiz-adv-x="1024" />
<glyph unicode="&#x20;" horiz-adv-x="512" d="" />
<glyph unicode="&#xe900;" glyph-name="outlined-triangle" d="M546.684 827.924c-7.035 12.082-19.926 20.075-34.684 20.075s-27.649-7.992-34.582-19.884l-0.102-0.19-418.178-727.938c-3.343-5.719-5.316-12.592-5.316-19.926 0-22.091 17.909-40 40-40 0 0 0 0 0 0h836.356c22.091 0 39.999 17.909 39.999 40 0 7.333-1.973 14.205-5.418 20.114l0.102-0.19zM135.288 104.060l376.712 655.758 376.712-655.758z" />
<glyph unicode="&#xe901;" glyph-name="checkmark" d="M147.395 467.395c-10.712 10.712-28.078 10.712-38.79 0s-10.712-28.078 0-38.79l256-256c10.712-10.712 28.078-10.712 38.79 0l512 512c10.712 10.712 10.712 28.078 0 38.79s-28.078 10.712-38.79 0l-492.605-492.605-236.605 236.605z" />
<glyph unicode="&#xe902;" glyph-name="lock" d="M728.412 590.515v153.072c0 119.331-97.082 216.412-216.412 216.412s-216.412-97.082-216.412-216.412v-153.072h-147.794v-654.515h728.412v654.515h-147.794zM358.928 743.588c0 84.405 68.667 153.072 153.072 153.072s153.072-68.667 153.072-153.072v-153.072h-306.144v153.072zM812.866-0.66h-601.732v527.835h601.732v-527.835zM480.33 246.268v-113.1h63.34v113.102c24.943 11.883 42.227 37.333 42.227 66.752 0 40.747-33.15 73.897-73.897 73.897s-73.897-33.15-73.897-73.897c0-29.422 17.283-54.874 42.227-66.754z" />
<glyph unicode="&#xe903;" glyph-name="mail-small" d="M945.148 831.892h-866.295c-43.423 0-78.852-35.43-78.852-78.852v-610.079c0-43.423 35.43-78.852 78.852-78.852h866.295c43.423 0 78.852 35.43 78.852 78.852v610.079c0 43.423-35.43 78.852-78.852 78.852zM933.698 773.563l-416.297-356.024-416.297 356.024h832.594zM965.671 142.96c0-11.234-9.289-20.523-20.523-20.523h-866.295c-11.234 0-20.523 9.289-20.523 20.523v590.42l440.061-376.331c0.216-0.216 0.648-0.432 0.864-0.648s0.648-0.432 0.864-0.648 1.080-0.864 1.728-1.080c0.216-0.216 0.432-0.216 0.648-0.432 0.864-0.432 1.728-0.864 2.592-1.296 0.216 0 0.432-0.216 0.648-0.216 0.648-0.216 1.296-0.648 2.16-0.864 0.216 0 0.648-0.216 0.864-0.216 0.648-0.216 1.296-0.432 1.944-0.432 0.216 0 0.648-0.216 0.864-0.216 0.648-0.216 1.512-0.216 2.16-0.432 0.216 0 0.432 0 0.648 0 0.864 0 1.944-0.216 2.808-0.216v0 0c0.864 0 1.944 0 2.808 0.216 0.216 0 0.432 0 0.648 0 0.648 0 1.512 0.216 2.16 0.432 0.216 0 0.648 0.216 0.864 0.216 0.648 0.216 1.296 0.432 1.944 0.432 0.216 0 0.648 0.216 0.864 0.216 0.648 0.216 1.296 0.432 2.16 0.864 0.216 0 0.432 0.216 0.648 0.216 0.864 0.432 1.728 0.864 2.592 1.296 0.216 0.216 0.432 0.216 0.648 0.432 0.648 0.432 1.080 0.648 1.728 1.080 0.216 0.216 0.648 0.432 0.864 0.648s0.648 0.432 0.864 0.648l429.691 367.041v-581.131z" />
<glyph unicode="&#xe904;" glyph-name="resend" d="M512 960c-192 0-358.4-102.4-441.6-262.4l-70.4 70.4v-256h256l-96 96c64 128 198.4 224 352 224 211.2 0 384-172.8 384-384s-172.8-384-384-384c-115.2 0-217.6 51.2-288 134.4l-96-83.2c89.6-108.8 230.4-179.2 384-179.2 281.6 0 512 230.4 512 512s-230.4 512-512 512z" />
<glyph unicode="&#xe905;" glyph-name="delivery-man" d="M753.216 606.862h-229.552c-20.998 0-38.022-17.024-38.022-38.022v-25.044l64.492-10.33c38.656-6.192 65.070-42.68 58.876-81.336-4.78-29.846-27.982-53.432-57.736-58.696-4.058-0.718-8.206-1.082-12.328-1.082-3.758 0-7.55 0.302-11.274 0.9l-42.032 6.734v-60.696c0-20.998 17.024-38.022 38.022-38.022h229.55c20.998 0 38.022 17.024 38.022 38.022v229.55c0.004 20.998-17.020 38.022-38.018 38.022zM545.566 504.956l-143.888 23.048-47.446 104.086 62.892-77.318 31.216-5v110.716c0 32.574-26.406 58.98-58.98 58.98h-105.18c-32.574 0-58.98-26.406-58.98-58.98v-303.080l19.088-153.96-82.806-200.982c-10.126-24.574 1.588-52.702 26.162-62.826 24.58-10.128 52.704 1.598 62.826 26.162l87.624 212.678c3.158 7.668 4.284 16.024 3.262 24.252l-15.058 121.458h37.376l13.55-103.752-47.932-226.338c-5.506-26.002 11.108-51.542 37.108-57.048s51.544 11.112 57.048 37.108l49.638 234.382c1.13 5.326 1.344 10.804 0.64 16.202l-23.63 180.932-88.614 14.194c-33.306 5.328-52.514 32.448-55.418 46.98l-24.076 120.592 52.39-114.94c5.854-12.838 17.74-21.894 31.67-24.124l166.192-26.62c20.592-3.3 40.258 8.964 46.656 28.338 8.176 24.772-7.796 50.77-33.33 54.86zM424.544 832.934c0-48.22-39.090-87.31-87.31-87.31s-87.31 39.090-87.31 87.31c0 48.22 39.090 87.31 87.31 87.31s87.31-39.090 87.31-87.31zM831.088 805.29h-274.186c-19.368 0-35.070-15.702-35.070-35.070v-95.646c0-19.368 15.702-35.070 35.070-35.070h274.186c19.368 0 35.070 15.702 35.070 35.070v95.646c0 19.368-15.702 35.070-35.070 35.070zM706.604 960h-88.764c-9.31 0-16.856-7.546-16.856-16.856v-88.764c0-9.31 7.548-16.856 16.856-16.856h88.764c9.31 0 16.856 7.546 16.856 16.856v88.764c0 9.31-7.546 16.856-16.856 16.856z" />
<glyph unicode="&#xe906;" glyph-name="delivery-van" d="M320.001 314.128c-49.697 0-89.971-40.259-89.971-89.961 0-49.704 40.274-89.964 89.971-89.964 49.714 0 89.979 40.259 89.979 89.964 0 49.702-40.264 89.961-89.979 89.961zM320.001 185.055c-21.604 0-39.109 17.508-39.109 39.111 0 21.614 17.505 39.111 39.109 39.111 21.606 0 39.124-17.498 39.124-39.111 0-21.604-17.518-39.111-39.124-39.111zM794.434 314.128c-49.697 0-89.969-40.259-89.969-89.961 0-49.704 40.272-89.964 89.969-89.964 49.717 0 89.979 40.259 89.979 89.964 0 49.702-40.262 89.961-89.979 89.961zM794.434 185.055c-21.604 0-39.106 17.508-39.106 39.111 0 21.614 17.503 39.111 39.106 39.111 21.609 0 39.127-17.498 39.127-39.111 0-21.604-17.518-39.111-39.127-39.111zM421.219 590.562c0-12.607-10.316-22.92-22.92-22.92h-316.288c-12.607 0-22.918 10.313-22.918 22.92v13.752c0 12.604 10.313 22.918 22.918 22.918h316.288c12.607 0 22.92-10.313 22.92-22.918v-13.752zM970.734 456.371c-32.989 8.576-51.867 13.969-64.821 38.986l-43.315 87.701c-12.959 25.017-46.616 45.488-74.782 45.488h-59.245c0 0-7.97-0.166-7.97 7.854 0 18.389 0 73.553 0 73.553 0 28.514-16.136 51.844-50.46 51.844h-482.841c-49.14 0-72.471-23.333-72.471-51.844v-46.095c0 0 0-13.709 13.269-13.709 67.55 0 270.201 0 270.201 0 25.276 0 45.84-20.561 45.84-45.838v-13.752c0-25.276-20.564-45.838-45.84-45.838h-270.201c0 0-13.269 1.103-13.269-13.221 0-7.114 0-11.889 0-15.852 0-12.607 17.279-12.599 17.279-12.599h181.886c25.276 0 45.84-20.564 45.84-45.838v-13.752c0-25.276-20.564-45.838-45.84-45.838h-179.016c0 0-20.149 0.373-20.149-15.67 0-27.847 0-111.381 0-111.381 0-28.511 23.33-51.844 51.844-51.844 0 0 21.478 0 28.637 0 6.495 0 7.451 3.617 7.451 5.435 0 64.642 52.597 117.226 117.241 117.226 64.65 0 117.244-52.589 117.244-117.226 0-1.825-0.519-5.435 4.448-5.435 56.765 0 231.104 0 231.104 0 4.582 0 4.395 3.862 4.395 5.435 0 64.642 52.594 117.226 117.241 117.226s117.241-52.589 117.241-117.226c0-1.825-0.045-5.435 2.822-5.435 26.029 0 58.266 0 58.266 0 28.181 0 51.232 23.051 51.232 51.23v97.329c0.003 81.966-25.878 81.966-53.264 89.085zM873.246 460.93c0 0-108.796 0-145.823 0-6.024 0-6.824 5.865-6.824 5.865v121.473c0 0-0.34 4.665 7.396 4.665 10.404 0 41.609 0 41.609 0 25.070 0 55.016-18.215 66.543-40.476l38.545-78.037c1.624-3.142 3.358-5.931 5.216-8.43 1.369-1.833-0.926-5.060-6.661-5.060zM336.912 443.46c0-12.607-10.313-22.92-22.918-22.92h-291.077c-12.607 0-22.918 10.313-22.918 22.92v13.752c0 12.604 10.313 22.918 22.918 22.918h291.077c12.607 0 22.918-10.313 22.918-22.918v-13.752z" />
<glyph unicode="&#xe907;" glyph-name="coffee-cup" d="M777.4 871.533h-6.462l-22.318 55.796c-7.94 19.847-26.881 32.671-48.258 32.671h-376.721c-21.376 0-40.316-12.823-48.256-32.671l-22.32-55.796h-6.462c-18.903 0-34.281-15.378-34.281-34.281v-35.387c0-18.903 15.378-34.281 34.281-34.281h1.86l6.102-131.163c-2.512-1.535-4.857-3.36-6.911-5.514-6.438-6.743-9.879-15.951-9.446-25.264l18.927-406.946c0.602-12.916 8.263-23.835 19.149-29.172l6.049-130.068c0.588-12.646 7.935-23.399 18.461-28.853v-40.325c0-18.903 15.378-34.281 34.281-34.281h353.866c18.903 0 34.281 15.378 34.281 34.281v40.327c10.525 5.454 17.872 16.205 18.461 28.853l6.049 130.068c10.886 5.337 18.547 16.256 19.149 29.172l18.927 406.946c0.433 9.311-3.010 18.52-9.446 25.262-2.057 2.154-4.399 3.979-6.911 5.514l6.093 131.163h1.86c18.903 0 34.281 15.378 34.281 34.281v35.387c0 18.903-15.378 34.281-34.281 34.281zM306.183 915.008c2.871 7.179 9.722 11.817 17.454 11.817h376.724c7.732 0 14.584-4.638 17.454-11.817l17.39-43.475h-446.411l17.388 43.475zM690.039-29.719c0-0.61-0.495-1.106-1.106-1.106h-353.866c-0.61 0-1.106 0.495-1.106 1.106v36.492h356.078v-36.492zM708.535 41.003c-0.029-0.593-0.513-1.055-1.106-1.055h-390.858c-0.593 0-1.077 0.462-1.106 1.055l-5.814 125.010h404.699l-5.814-125.010zM752.66 607.189l-18.927-406.946c-0.029-0.593-0.513-1.055-1.106-1.055h-441.253c-0.593 0-1.077 0.462-1.106 1.055l-18.927 406.946c-0.004 0.13-0.022 0.473 0.305 0.816 0.325 0.343 0.67 0.343 0.801 0.343h479.108c0.13 0 0.473 0 0.801-0.343 0.327-0.345 0.31-0.688 0.305-0.816zM281.671 767.585h460.658l-5.863-126.065h-448.932l-5.863 126.065zM778.505 801.866c0-0.61-0.495-1.106-1.106-1.106h-530.799c-0.61 0-1.106 0.495-1.106 1.106v35.387c0 0.61 0.495 1.106 1.106 1.106h17.965c0.022 0 0.044 0 0.066 0h495.021c0.020 0 0.038-0.004 0.058-0.004 0.031 0 0.062 0.004 0.093 0.004h17.596c0.61 0 1.106-0.495 1.106-1.106v-35.387zM512 526.514c-67.684 0-122.747-55.064-122.747-122.747s55.064-122.747 122.747-122.747c67.684 0 122.747 55.064 122.747 122.747s-55.064 122.747-122.747 122.747zM512 314.194c-49.391 0-89.572 40.181-89.572 89.572s40.181 89.572 89.572 89.572c49.391 0 89.572-40.181 89.572-89.572s-40.181-89.572-89.572-89.572z" />
<glyph unicode="&#xe908;" glyph-name="slider-arrow" d="M780.194 935.63l-24.37 24.37-512.017-512 512.017-512 24.37 24.37-487.63 487.63z" />
<glyph unicode="&#xe909;" glyph-name="tiktok" horiz-adv-x="878" d="M639.347 960c16.898-145.32 98.007-231.959 239.026-241.176v-163.447c-81.723-7.988-153.308 18.741-236.568 69.127v-305.695c0-388.34-423.364-509.696-593.57-231.345-109.374 179.116-42.398 493.413 308.46 506.009v-172.356c-26.729-4.301-55.302-11.060-81.416-19.97-78.037-26.422-122.278-75.886-109.989-163.14 23.657-167.134 330.273-216.598 304.773 109.989v611.696h169.284z" />
<glyph unicode="&#xe90a;" glyph-name="map-pointer" d="M512 960c-171.206 0-310.484-139.28-310.484-310.484 0-165.186 283.392-577.352 295.458-594.826 3.406-4.94 9.026-7.88 15.026-7.88 6.002 0 11.62 2.94 15.026 7.88 12.066 17.472 295.458 429.638 295.458 594.826 0.002 171.204-139.278 310.484-310.484 310.484zM512 97.668c-59.358 88.668-273.958 418.542-273.958 551.848 0 151.060 122.898 273.958 273.958 273.958s273.958-122.898 273.958-273.958c0-133.27-214.61-463.172-273.958-551.848zM512 777.362c-70.496 0-127.846-57.352-127.846-127.846 0-70.498 57.35-127.846 127.846-127.846s127.846 57.348 127.846 127.846c0 70.494-57.35 127.846-127.846 127.846zM512 558.196c-50.35 0-91.32 40.968-91.32 91.32 0 50.348 40.968 91.32 91.32 91.32 50.35 0 91.32-40.972 91.32-91.32 0-50.352-40.97-91.32-91.32-91.32zM913.322-40.328l-73.056 309.872c-1.944 8.248-9.31 13.468-17.782 13.468h-73.056c-10.086 0-18.264-8.178-18.264-18.264s8.178-18.264 18.264-18.264h58.59l64.458-273.958h-720.954l64.458 273.958h58.59c10.086 0 18.264 8.178 18.264 18.264s-8.178 18.264-18.264 18.264h-73.056c-8.472 0-15.838-5.22-17.782-13.468l-73.056-310.18c-1.276-5.432 0-11.606 3.47-15.986 3.46-4.37 8.73-7.38 14.314-7.38h767.080c5.582 0 10.852 3.164 14.312 7.534 3.47 4.38 4.746 10.708 3.47 16.14z" />
<glyph unicode="&#xe90b;" glyph-name="mail-big" d="M164.128 197.962c8.425-4.082 17.881-6.372 27.872-6.372h640c9.991 0 19.447 2.289 27.872 6.372l-252.101 237.272-82.209-67.701c-7.877-6.487-19.246-6.487-27.124 0l-82.209 67.701-252.102-237.272zM134.105 228.274c0.198 0.201 0.4 0.399 0.607 0.594l248.315 233.708-247.256 203.622c-0.539 0.444-1.051 0.909-1.535 1.393-3.998-8.355-6.237-17.712-6.237-27.591v-384.41c0-9.771 2.19-19.031 6.105-27.316v0zM889.895 228.274c3.916 8.284 6.105 17.544 6.105 27.316v384.41c0 9.88-2.239 19.237-6.237 27.591-0.484-0.484-0.996-0.949-1.535-1.393l-247.256-203.622 248.315-233.708c0.207-0.195 0.409-0.393 0.607-0.594v0zM859.496 697.809c-8.33 3.969-17.653 6.191-27.496 6.191h-640c-9.842 0-19.165-2.222-27.496-6.191l347.496-286.173 347.496 286.173zM192 746.667h640c58.91 0 106.667-47.756 106.667-106.667v-384.41c0-58.91-47.756-106.667-106.667-106.667h-640c-58.91 0-106.667 47.756-106.667 106.667v384.41c0 58.91 47.756 106.667 106.667 106.667z" />
<glyph unicode="&#xe90c;" glyph-name="heart-empty" d="M737.668 898.914c-76.594 0-148.757-29.962-202.985-84.19l-22.366-22.366-22.788 22.788c-54.228 54.228-126.391 84.19-202.985 84.19-76.383 0-148.335-29.751-202.563-83.979s-83.979-126.18-83.979-202.774 29.962-148.546 84.19-202.774l402.806-402.806c6.963-6.963 16.247-10.339 25.32-10.339 9.284 0 18.568 3.587 25.531 10.55l401.962 401.962c54.228 54.228 84.19 126.18 84.19 202.774s-29.751 148.757-83.979 202.774c-54.017 54.439-125.969 84.19-202.352 84.19zM888.747 460.449l-376.219-376.43-377.063 377.063c-40.513 40.513-62.879 94.319-63.090 151.712 0 57.182 22.155 110.988 62.668 151.501 40.513 40.302 94.319 62.668 151.29 62.668 57.393 0 111.199-22.366 151.923-63.090l48.32-48.32c13.504-13.504 37.559-13.504 51.274 0l48.109 48.109c40.513 40.513 94.53 62.879 151.712 62.879s110.988-22.366 151.501-62.879c40.513-40.513 62.879-94.319 62.668-151.712 0-57.182-22.366-110.988-63.090-151.501z" />
<glyph unicode="&#xe90d;" glyph-name="heart" d="M842.523 851.243c-136.654 44.305-283.52-29.632-330.415-165.278-46.892 135.789-193.76 209.583-330.414 165.278-138.237-45.025-213.612-193.762-168.731-332.574 43.154-132.338 443.334-486.775 494.541-486.775 51.209 0 460.309 354.006 503.463 486.775 45.023 139.1-30.352 287.837-168.445 332.574z" />
<glyph unicode="&#xe90e;" glyph-name="search" d="M387.894 447.975c-68.447 0-124.131 55.684-124.131 124.127 0 25.706-20.84 46.545-46.545 46.545s-46.545-20.84-46.545-46.545c0-119.777 97.444-217.218 217.221-217.218 25.706 0 46.545 20.84 46.545 46.545s-20.84 46.545-46.545 46.545zM1010.365 15.456l-317.369 317.369c51.839 65.958 82.795 149.070 82.795 239.278 0 213.889-174.009 387.897-387.897 387.897-213.886 0-387.894-174.009-387.894-387.894s174.009-387.894 387.894-387.894c90.205 0 173.32 30.953 239.278 82.792l317.372-317.369c9.086-9.092 20.998-13.635 32.911-13.635s23.825 4.543 32.911 13.635c18.178 18.174 18.178 47.647 0 65.821zM93.091 572.106c0 162.555 132.248 294.803 294.803 294.803s294.806-132.248 294.806-294.803c0-162.555-132.251-294.803-294.806-294.803s-294.803 132.248-294.803 294.803z" />
<glyph unicode="&#xe90f;" glyph-name="profile" d="M753.665 705.408c0-133.467-108.197-241.664-241.664-241.664s-241.664 108.197-241.664 241.664c0 133.467 108.197 241.664 241.664 241.664s241.664-108.197 241.664-241.664zM799.501 426.337c-3.811 2.589-11.477 7.568-11.477 7.568-61.774-85.763-162.485-141.704-276.023-141.704-113.549 0-214.271 55.954-276.042 141.735 0 0-6.444-4.219-9.644-6.374-136.52-91.956-226.315-247.967-226.315-424.947v-53.688h1024v53.688c0 176.196-89 331.604-224.499 423.722z" />
<glyph unicode="&#xe942;" glyph-name="phone" d="M704 320c-64-64-64-128-128-128s-128 64-192 128-128 128-128 192 64 64 128 128-128 256-192 256-192-192-192-192c0-128 131.5-387.5 256-512s384-256 512-256c0 0 192 128 192 192s-192 256-256 192z" />
<glyph unicode="&#xe9d7;" glyph-name="star-empty" d="M1024 562.95l-353.78 51.408-158.22 320.582-158.216-320.582-353.784-51.408 256-249.538-60.432-352.352 316.432 166.358 316.432-166.358-60.434 352.352 256.002 249.538zM512 206.502l-223.462-117.48 42.676 248.83-180.786 176.222 249.84 36.304 111.732 226.396 111.736-226.396 249.836-36.304-180.788-176.222 42.678-248.83-223.462 117.48z" />
<glyph unicode="&#xe9d9;" glyph-name="star" d="M1024 562.95l-353.78 51.408-158.22 320.582-158.216-320.582-353.784-51.408 256-249.538-60.432-352.352 316.432 166.358 316.432-166.358-60.434 352.352 256.002 249.538z" />
<glyph unicode="&#xea92;" glyph-name="instagram" d="M512 867.8c136.8 0 153-0.6 206.8-3 50-2.2 77-10.6 95-17.6 23.8-9.2 41-20.4 58.8-38.2 18-18 29-35 38.4-58.8 7-18 15.4-45.2 17.6-95 2.4-54 3-70.2 3-206.8s-0.6-153-3-206.8c-2.2-50-10.6-77-17.6-95-9.2-23.8-20.4-41-38.2-58.8-18-18-35-29-58.8-38.4-18-7-45.2-15.4-95-17.6-54-2.4-70.2-3-206.8-3s-153 0.6-206.8 3c-50 2.2-77 10.6-95 17.6-23.8 9.2-41 20.4-58.8 38.2-18 18-29 35-38.4 58.8-7 18-15.4 45.2-17.6 95-2.4 54-3 70.2-3 206.8s0.6 153 3 206.8c2.2 50 10.6 77 17.6 95 9.2 23.8 20.4 41 38.2 58.8 18 18 35 29 58.8 38.4 18 7 45.2 15.4 95 17.6 53.8 2.4 70 3 206.8 3zM512 960c-139 0-156.4-0.6-211-3-54.4-2.4-91.8-11.2-124.2-23.8-33.8-13.2-62.4-30.6-90.8-59.2-28.6-28.4-46-57-59.2-90.6-12.6-32.6-21.4-69.8-23.8-124.2-2.4-54.8-3-72.2-3-211.2s0.6-156.4 3-211c2.4-54.4 11.2-91.8 23.8-124.2 13.2-33.8 30.6-62.4 59.2-90.8 28.4-28.4 57-46 90.6-59 32.6-12.6 69.8-21.4 124.2-23.8 54.6-2.4 72-3 211-3s156.4 0.6 211 3c54.4 2.4 91.8 11.2 124.2 23.8 33.6 13 62.2 30.6 90.6 59s46 57 59 90.6c12.6 32.6 21.4 69.8 23.8 124.2 2.4 54.6 3 72 3 211s-0.6 156.4-3 211c-2.4 54.4-11.2 91.8-23.8 124.2-12.6 34-30 62.6-58.6 91-28.4 28.4-57 46-90.6 59-32.6 12.6-69.8 21.4-124.2 23.8-54.8 2.6-72.2 3.2-211.2 3.2v0zM512 711c-145.2 0-263-117.8-263-263s117.8-263 263-263 263 117.8 263 263c0 145.2-117.8 263-263 263zM512 277.4c-94.2 0-170.6 76.4-170.6 170.6s76.4 170.6 170.6 170.6c94.2 0 170.6-76.4 170.6-170.6s-76.4-170.6-170.6-170.6zM846.8 721.4c0-33.91-27.49-61.4-61.4-61.4s-61.4 27.49-61.4 61.4c0 33.91 27.49 61.4 61.4 61.4s61.4-27.49 61.4-61.4z" />
</font>
</defs>
</svg>
